<mxfile host="Electron" agent="Mozilla/5.0 (X11; Linux x86_64) AppleWebKit/537.36 (KHTML, like Gecko) draw.io/27.0.9 Chrome/134.0.6998.205 Electron/35.4.0 Safari/537.36" version="27.0.9">
  <diagram name="Page-1" id="-_VZkfW9rMIznKhrZrfE">
    <mxGraphModel dx="1042" dy="639" grid="1" gridSize="10" guides="1" tooltips="1" connect="1" arrows="1" fold="1" page="1" pageScale="1" pageWidth="850" pageHeight="1100" math="0" shadow="0">
      <root>
        <mxCell id="0" />
        <mxCell id="1" parent="0" />
        <mxCell id="zNZISt4Ljxx41KLlrWgS-308" value="" style="shape=table;startSize=0;container=1;collapsible=0;childLayout=tableLayout;fontSize=16;strokeColor=none;fillColor=default;strokeWidth=2;swimlaneLine=1;perimeterSpacing=0;rowLines=0;columnLines=0;swimlaneHead=1;fillStyle=cross-hatch;" parent="1" vertex="1">
          <mxGeometry x="50" y="350" width="190" height="220" as="geometry" />
        </mxCell>
        <mxCell id="zNZISt4Ljxx41KLlrWgS-309" value="" style="shape=tableRow;horizontal=0;startSize=0;swimlaneHead=0;swimlaneBody=0;strokeColor=inherit;top=0;left=0;bottom=0;right=0;collapsible=0;dropTarget=0;fillColor=none;points=[[0,0.5],[1,0.5]];portConstraint=eastwest;fontSize=16;" parent="zNZISt4Ljxx41KLlrWgS-308" vertex="1">
          <mxGeometry width="190" height="60" as="geometry" />
        </mxCell>
        <mxCell id="zNZISt4Ljxx41KLlrWgS-310" value="0x0000" style="shape=partialRectangle;html=1;whiteSpace=wrap;connectable=0;strokeColor=inherit;overflow=hidden;fillColor=none;top=1;left=1;bottom=1;right=1;pointerEvents=1;fontSize=16;strokeWidth=12;shadow=0;expand=1;verticalAlign=bottom;align=right;spacingBottom=-10;spacing=0;spacingRight=6;" parent="zNZISt4Ljxx41KLlrWgS-309" vertex="1">
          <mxGeometry width="60" height="60" as="geometry">
            <mxRectangle width="60" height="60" as="alternateBounds" />
          </mxGeometry>
        </mxCell>
        <mxCell id="zNZISt4Ljxx41KLlrWgS-311" value="Espace du Processus B" style="shape=partialRectangle;html=1;whiteSpace=wrap;connectable=0;strokeColor=inherit;overflow=visible;fillColor=none;top=1;left=1;bottom=1;right=1;pointerEvents=1;fontSize=16;strokeWidth=2;verticalAlign=middle;" parent="zNZISt4Ljxx41KLlrWgS-309" vertex="1">
          <mxGeometry x="60" width="130" height="60" as="geometry">
            <mxRectangle width="130" height="60" as="alternateBounds" />
          </mxGeometry>
        </mxCell>
        <mxCell id="zNZISt4Ljxx41KLlrWgS-312" value="" style="shape=tableRow;horizontal=0;startSize=0;swimlaneHead=0;swimlaneBody=0;strokeColor=inherit;top=0;left=0;bottom=0;right=0;collapsible=0;dropTarget=0;fillColor=none;portConstraint=eastwest;fontSize=16;swimlaneFillColor=none;points=[[0,0,0,0,0],[0,0.5,0,0,0],[0,1,0,0,0],[0.5,0,0,0,0],[0.5,1,0,0,0],[1,0,0,0,0],[1,0.5,0,0,0],[1,1,0,0,0]];" parent="zNZISt4Ljxx41KLlrWgS-308" vertex="1">
          <mxGeometry y="60" width="190" height="32" as="geometry" />
        </mxCell>
        <mxCell id="zNZISt4Ljxx41KLlrWgS-313" value="0x1000" style="shape=partialRectangle;html=1;whiteSpace=wrap;connectable=0;strokeColor=default;overflow=hidden;fillColor=none;top=0;left=0;bottom=0;right=0;pointerEvents=1;fontSize=16;strokeWidth=3;align=right;verticalAlign=bottom;spacing=0;spacingRight=6;spacingBottom=-10;" parent="zNZISt4Ljxx41KLlrWgS-312" vertex="1">
          <mxGeometry width="60" height="32" as="geometry">
            <mxRectangle width="60" height="32" as="alternateBounds" />
          </mxGeometry>
        </mxCell>
        <mxCell id="zNZISt4Ljxx41KLlrWgS-314" value="page 0" style="shape=partialRectangle;html=1;whiteSpace=wrap;connectable=0;strokeColor=#666666;overflow=hidden;fillColor=#f5f5f5;top=1;left=1;bottom=1;right=1;pointerEvents=1;fontSize=16;strokeWidth=2;fontColor=#333333;shadow=1;" parent="zNZISt4Ljxx41KLlrWgS-312" vertex="1">
          <mxGeometry x="60" width="130" height="32" as="geometry">
            <mxRectangle width="130" height="32" as="alternateBounds" />
          </mxGeometry>
        </mxCell>
        <mxCell id="zNZISt4Ljxx41KLlrWgS-315" style="shape=tableRow;horizontal=0;startSize=0;swimlaneHead=0;swimlaneBody=0;strokeColor=inherit;top=0;left=0;bottom=0;right=0;collapsible=0;dropTarget=0;fillColor=none;portConstraint=eastwest;fontSize=16;swimlaneFillColor=none;points=[[0,0,0,0,0],[0,0.5,0,0,0],[0,1,0,0,0],[0.5,0,0,0,0],[0.5,1,0,0,0],[1,0,0,0,0],[1,0.5,0,0,0],[1,1,0,0,0]];" parent="zNZISt4Ljxx41KLlrWgS-308" vertex="1">
          <mxGeometry y="92" width="190" height="32" as="geometry" />
        </mxCell>
        <mxCell id="zNZISt4Ljxx41KLlrWgS-316" value="0x2000" style="shape=partialRectangle;html=1;whiteSpace=wrap;connectable=0;strokeColor=default;overflow=hidden;fillColor=none;top=0;left=0;bottom=0;right=0;pointerEvents=1;fontSize=16;strokeWidth=3;align=right;verticalAlign=bottom;spacing=0;spacingRight=6;spacingBottom=-10;" parent="zNZISt4Ljxx41KLlrWgS-315" vertex="1">
          <mxGeometry width="60" height="32" as="geometry">
            <mxRectangle width="60" height="32" as="alternateBounds" />
          </mxGeometry>
        </mxCell>
        <mxCell id="zNZISt4Ljxx41KLlrWgS-317" value="page 1" style="shape=partialRectangle;html=1;whiteSpace=wrap;connectable=0;strokeColor=#82b366;overflow=hidden;fillColor=#d5e8d4;top=1;left=1;bottom=1;right=1;pointerEvents=1;fontSize=16;strokeWidth=2;fillStyle=auto;comic=0;shadow=1;" parent="zNZISt4Ljxx41KLlrWgS-315" vertex="1">
          <mxGeometry x="60" width="130" height="32" as="geometry">
            <mxRectangle width="130" height="32" as="alternateBounds" />
          </mxGeometry>
        </mxCell>
        <mxCell id="zNZISt4Ljxx41KLlrWgS-318" style="shape=tableRow;horizontal=0;startSize=0;swimlaneHead=0;swimlaneBody=0;strokeColor=inherit;top=0;left=0;bottom=0;right=0;collapsible=0;dropTarget=0;fillColor=none;portConstraint=eastwest;fontSize=16;swimlaneFillColor=none;points=[[0,0,0,0,0],[0,0.5,0,0,0],[0,1,0,0,0],[0.5,0,0,0,0],[0.5,1,0,0,0],[1,0,0,0,0],[1,0.5,0,0,0],[1,1,0,0,0]];" parent="zNZISt4Ljxx41KLlrWgS-308" vertex="1">
          <mxGeometry y="124" width="190" height="32" as="geometry" />
        </mxCell>
        <mxCell id="zNZISt4Ljxx41KLlrWgS-319" value="0x3000" style="shape=partialRectangle;html=1;whiteSpace=wrap;connectable=0;strokeColor=default;overflow=hidden;fillColor=none;top=0;left=0;bottom=0;right=0;pointerEvents=1;fontSize=16;strokeWidth=3;align=right;verticalAlign=bottom;spacing=0;spacingRight=6;spacingBottom=-10;" parent="zNZISt4Ljxx41KLlrWgS-318" vertex="1">
          <mxGeometry width="60" height="32" as="geometry">
            <mxRectangle width="60" height="32" as="alternateBounds" />
          </mxGeometry>
        </mxCell>
        <mxCell id="zNZISt4Ljxx41KLlrWgS-320" value="page 2" style="shape=partialRectangle;html=1;whiteSpace=wrap;connectable=0;strokeColor=#666666;overflow=hidden;fillColor=#f5f5f5;top=1;left=1;bottom=1;right=1;pointerEvents=1;fontSize=16;strokeWidth=2;fontColor=#333333;shadow=1;" parent="zNZISt4Ljxx41KLlrWgS-318" vertex="1">
          <mxGeometry x="60" width="130" height="32" as="geometry">
            <mxRectangle width="130" height="32" as="alternateBounds" />
          </mxGeometry>
        </mxCell>
        <mxCell id="zNZISt4Ljxx41KLlrWgS-321" style="shape=tableRow;horizontal=0;startSize=0;swimlaneHead=0;swimlaneBody=0;strokeColor=inherit;top=0;left=0;bottom=0;right=0;collapsible=0;dropTarget=0;fillColor=none;portConstraint=eastwest;fontSize=16;swimlaneFillColor=none;points=[[0,0,0,0,0],[0,0.5,0,0,0],[0,1,0,0,0],[0.5,0,0,0,0],[0.5,1,0,0,0],[1,0,0,0,0],[1,0.5,0,0,0],[1,1,0,0,0]];" parent="zNZISt4Ljxx41KLlrWgS-308" vertex="1">
          <mxGeometry y="156" width="190" height="32" as="geometry" />
        </mxCell>
        <mxCell id="zNZISt4Ljxx41KLlrWgS-322" value="0x4000" style="shape=partialRectangle;html=1;whiteSpace=wrap;connectable=0;strokeColor=default;overflow=hidden;fillColor=none;top=0;left=0;bottom=0;right=0;pointerEvents=1;fontSize=16;strokeWidth=3;align=right;verticalAlign=bottom;spacing=0;spacingRight=6;spacingBottom=-10;" parent="zNZISt4Ljxx41KLlrWgS-321" vertex="1">
          <mxGeometry width="60" height="32" as="geometry">
            <mxRectangle width="60" height="32" as="alternateBounds" />
          </mxGeometry>
        </mxCell>
        <mxCell id="zNZISt4Ljxx41KLlrWgS-323" value="page 3" style="shape=partialRectangle;html=1;whiteSpace=wrap;connectable=0;strokeColor=#6c8ebf;overflow=hidden;fillColor=#dae8fc;top=1;left=1;bottom=1;right=1;pointerEvents=1;fontSize=16;strokeWidth=2;shadow=1;" parent="zNZISt4Ljxx41KLlrWgS-321" vertex="1">
          <mxGeometry x="60" width="130" height="32" as="geometry">
            <mxRectangle width="130" height="32" as="alternateBounds" />
          </mxGeometry>
        </mxCell>
        <mxCell id="zNZISt4Ljxx41KLlrWgS-324" style="shape=tableRow;horizontal=0;startSize=0;swimlaneHead=0;swimlaneBody=0;strokeColor=inherit;top=0;left=0;bottom=0;right=0;collapsible=0;dropTarget=0;fillColor=none;portConstraint=eastwest;fontSize=16;swimlaneFillColor=none;points=[[0,0,0,0,0],[0,0.5,0,0,0],[0,1,0,0,0],[0.5,0,0,0,0],[0.5,1,0,0,0],[1,0,0,0,0],[1,0.5,0,0,0],[1,1,0,0,0]];" parent="zNZISt4Ljxx41KLlrWgS-308" vertex="1">
          <mxGeometry y="188" width="190" height="32" as="geometry" />
        </mxCell>
        <mxCell id="zNZISt4Ljxx41KLlrWgS-325" value="0x5000" style="shape=partialRectangle;html=1;whiteSpace=wrap;connectable=0;strokeColor=default;overflow=hidden;fillColor=none;top=0;left=0;bottom=0;right=0;pointerEvents=1;fontSize=16;strokeWidth=3;align=right;verticalAlign=bottom;spacing=0;spacingRight=6;spacingBottom=-10;" parent="zNZISt4Ljxx41KLlrWgS-324" vertex="1">
          <mxGeometry width="60" height="32" as="geometry">
            <mxRectangle width="60" height="32" as="alternateBounds" />
          </mxGeometry>
        </mxCell>
        <mxCell id="zNZISt4Ljxx41KLlrWgS-326" value="page 4" style="shape=partialRectangle;html=1;whiteSpace=wrap;connectable=0;strokeColor=#666666;overflow=hidden;fillColor=#f5f5f5;top=1;left=1;bottom=1;right=1;pointerEvents=1;fontSize=16;strokeWidth=2;fontColor=#333333;shadow=1;" parent="zNZISt4Ljxx41KLlrWgS-324" vertex="1">
          <mxGeometry x="60" width="130" height="32" as="geometry">
            <mxRectangle width="130" height="32" as="alternateBounds" />
          </mxGeometry>
        </mxCell>
        <mxCell id="zNZISt4Ljxx41KLlrWgS-327" value="" style="shape=table;startSize=0;container=1;collapsible=0;childLayout=tableLayout;fontSize=16;strokeColor=none;fillColor=none;strokeWidth=2;swimlaneLine=1;perimeterSpacing=0;rowLines=0;columnLines=0;swimlaneHead=1;shadow=1;" parent="1" vertex="1">
          <mxGeometry x="300" y="350" width="40" height="220" as="geometry" />
        </mxCell>
        <mxCell id="zNZISt4Ljxx41KLlrWgS-328" value="" style="shape=tableRow;horizontal=0;startSize=0;swimlaneHead=0;swimlaneBody=0;strokeColor=inherit;top=0;left=0;bottom=0;right=0;collapsible=0;dropTarget=0;fillColor=none;points=[[0,0.5],[1,0.5]];portConstraint=eastwest;fontSize=16;" parent="zNZISt4Ljxx41KLlrWgS-327" vertex="1">
          <mxGeometry width="40" height="60" as="geometry" />
        </mxCell>
        <mxCell id="zNZISt4Ljxx41KLlrWgS-329" value="Table des Pages" style="shape=partialRectangle;connectable=0;strokeColor=inherit;overflow=visible;fillColor=none;top=1;left=1;bottom=1;right=1;pointerEvents=1;fontSize=16;strokeWidth=2;whiteSpace=wrap;html=1;verticalAlign=middle;" parent="zNZISt4Ljxx41KLlrWgS-328" vertex="1">
          <mxGeometry width="40" height="60" as="geometry">
            <mxRectangle width="40" height="60" as="alternateBounds" />
          </mxGeometry>
        </mxCell>
        <mxCell id="zNZISt4Ljxx41KLlrWgS-330" value="" style="shape=tableRow;horizontal=0;startSize=0;swimlaneHead=0;swimlaneBody=0;strokeColor=inherit;top=0;left=0;bottom=0;right=0;collapsible=0;dropTarget=0;fillColor=none;portConstraint=eastwest;fontSize=16;swimlaneFillColor=none;points=[[0,0,0,0,0],[0,0.5,0,0,0],[0,1,0,0,0],[0.5,0,0,0,0],[0.5,1,0,0,0],[1,0,0,0,0],[1,0.5,0,0,0],[1,1,0,0,0]];" parent="zNZISt4Ljxx41KLlrWgS-327" vertex="1">
          <mxGeometry y="60" width="40" height="32" as="geometry" />
        </mxCell>
        <mxCell id="zNZISt4Ljxx41KLlrWgS-331" value="-" style="shape=partialRectangle;html=1;whiteSpace=wrap;connectable=0;strokeColor=#666666;overflow=hidden;fillColor=#f5f5f5;top=1;left=1;bottom=1;right=1;pointerEvents=1;fontSize=16;strokeWidth=2;fontColor=#333333;shadow=1;" parent="zNZISt4Ljxx41KLlrWgS-330" vertex="1">
          <mxGeometry width="40" height="32" as="geometry">
            <mxRectangle width="40" height="32" as="alternateBounds" />
          </mxGeometry>
        </mxCell>
        <mxCell id="zNZISt4Ljxx41KLlrWgS-332" style="shape=tableRow;horizontal=0;startSize=0;swimlaneHead=0;swimlaneBody=0;strokeColor=inherit;top=0;left=0;bottom=0;right=0;collapsible=0;dropTarget=0;fillColor=none;portConstraint=eastwest;fontSize=16;swimlaneFillColor=none;points=[[0,0,0,0,0],[0,0.5,0,0,0],[0,1,0,0,0],[0.5,0,0,0,0],[0.5,1,0,0,0],[1,0,0,0,0],[1,0.5,0,0,0],[1,1,0,0,0]];" parent="zNZISt4Ljxx41KLlrWgS-327" vertex="1">
          <mxGeometry y="92" width="40" height="32" as="geometry" />
        </mxCell>
        <mxCell id="zNZISt4Ljxx41KLlrWgS-333" value="7" style="shape=partialRectangle;html=1;whiteSpace=wrap;connectable=0;strokeColor=#82b366;overflow=hidden;fillColor=#d5e8d4;top=1;left=1;bottom=1;right=1;pointerEvents=1;fontSize=16;strokeWidth=2;shadow=1;" parent="zNZISt4Ljxx41KLlrWgS-332" vertex="1">
          <mxGeometry width="40" height="32" as="geometry">
            <mxRectangle width="40" height="32" as="alternateBounds" />
          </mxGeometry>
        </mxCell>
        <mxCell id="zNZISt4Ljxx41KLlrWgS-334" style="shape=tableRow;horizontal=0;startSize=0;swimlaneHead=0;swimlaneBody=0;strokeColor=inherit;top=0;left=0;bottom=0;right=0;collapsible=0;dropTarget=0;fillColor=none;portConstraint=eastwest;fontSize=16;swimlaneFillColor=none;points=[[0,0,0,0,0],[0,0.5,0,0,0],[0,1,0,0,0],[0.5,0,0,0,0],[0.5,1,0,0,0],[1,0,0,0,0],[1,0.5,0,0,0],[1,1,0,0,0]];" parent="zNZISt4Ljxx41KLlrWgS-327" vertex="1">
          <mxGeometry y="124" width="40" height="32" as="geometry" />
        </mxCell>
        <mxCell id="zNZISt4Ljxx41KLlrWgS-335" value="-" style="shape=partialRectangle;html=1;whiteSpace=wrap;connectable=0;strokeColor=#666666;overflow=hidden;fillColor=#f5f5f5;top=1;left=1;bottom=1;right=1;pointerEvents=1;fontSize=16;strokeWidth=2;fontColor=#333333;shadow=1;" parent="zNZISt4Ljxx41KLlrWgS-334" vertex="1">
          <mxGeometry width="40" height="32" as="geometry">
            <mxRectangle width="40" height="32" as="alternateBounds" />
          </mxGeometry>
        </mxCell>
        <mxCell id="zNZISt4Ljxx41KLlrWgS-336" style="shape=tableRow;horizontal=0;startSize=0;swimlaneHead=0;swimlaneBody=0;strokeColor=inherit;top=0;left=0;bottom=0;right=0;collapsible=0;dropTarget=0;fillColor=none;portConstraint=eastwest;fontSize=16;swimlaneFillColor=none;points=[[0,0,0,0,0],[0,0.5,0,0,0],[0,1,0,0,0],[0.5,0,0,0,0],[0.5,1,0,0,0],[1,0,0,0,0],[1,0.5,0,0,0],[1,1,0,0,0]];" parent="zNZISt4Ljxx41KLlrWgS-327" vertex="1">
          <mxGeometry y="156" width="40" height="32" as="geometry" />
        </mxCell>
        <mxCell id="zNZISt4Ljxx41KLlrWgS-337" value="10" style="shape=partialRectangle;html=1;whiteSpace=wrap;connectable=0;strokeColor=#6c8ebf;overflow=hidden;fillColor=#dae8fc;top=1;left=1;bottom=1;right=1;pointerEvents=1;fontSize=16;strokeWidth=2;shadow=1;" parent="zNZISt4Ljxx41KLlrWgS-336" vertex="1">
          <mxGeometry width="40" height="32" as="geometry">
            <mxRectangle width="40" height="32" as="alternateBounds" />
          </mxGeometry>
        </mxCell>
        <mxCell id="zNZISt4Ljxx41KLlrWgS-338" style="shape=tableRow;horizontal=0;startSize=0;swimlaneHead=0;swimlaneBody=0;strokeColor=inherit;top=0;left=0;bottom=0;right=0;collapsible=0;dropTarget=0;fillColor=none;portConstraint=eastwest;fontSize=16;swimlaneFillColor=none;points=[[0,0,0,0,0],[0,0.5,0,0,0],[0,1,0,0,0],[0.5,0,0,0,0],[0.5,1,0,0,0],[1,0,0,0,0],[1,0.5,0,0,0],[1,1,0,0,0]];" parent="zNZISt4Ljxx41KLlrWgS-327" vertex="1">
          <mxGeometry y="188" width="40" height="32" as="geometry" />
        </mxCell>
        <mxCell id="zNZISt4Ljxx41KLlrWgS-339" value="-" style="shape=partialRectangle;html=1;whiteSpace=wrap;connectable=0;strokeColor=#666666;overflow=hidden;fillColor=#f5f5f5;top=1;left=1;bottom=1;right=1;pointerEvents=1;fontSize=16;strokeWidth=2;fontColor=#333333;shadow=1;" parent="zNZISt4Ljxx41KLlrWgS-338" vertex="1">
          <mxGeometry width="40" height="32" as="geometry">
            <mxRectangle width="40" height="32" as="alternateBounds" />
          </mxGeometry>
        </mxCell>
        <mxCell id="zNZISt4Ljxx41KLlrWgS-98" value="" style="shape=table;startSize=0;container=1;collapsible=0;childLayout=tableLayout;fontSize=16;strokeColor=none;fillColor=none;strokeWidth=2;swimlaneLine=1;perimeterSpacing=0;rowLines=0;columnLines=0;swimlaneHead=1;" parent="1" vertex="1">
          <mxGeometry x="50" y="110" width="190" height="220" as="geometry" />
        </mxCell>
        <mxCell id="zNZISt4Ljxx41KLlrWgS-99" value="" style="shape=tableRow;horizontal=0;startSize=0;swimlaneHead=0;swimlaneBody=0;strokeColor=inherit;top=0;left=0;bottom=0;right=0;collapsible=0;dropTarget=0;fillColor=none;points=[[0,0.5],[1,0.5]];portConstraint=eastwest;fontSize=16;" parent="zNZISt4Ljxx41KLlrWgS-98" vertex="1">
          <mxGeometry width="190" height="60" as="geometry" />
        </mxCell>
        <mxCell id="zNZISt4Ljxx41KLlrWgS-100" value="0x0000" style="shape=partialRectangle;html=1;whiteSpace=wrap;connectable=0;strokeColor=inherit;overflow=hidden;fillColor=none;top=1;left=1;bottom=1;right=1;pointerEvents=1;fontSize=16;strokeWidth=12;shadow=0;expand=1;verticalAlign=bottom;align=right;spacingBottom=-10;spacing=0;spacingRight=6;" parent="zNZISt4Ljxx41KLlrWgS-99" vertex="1">
          <mxGeometry width="60" height="60" as="geometry">
            <mxRectangle width="60" height="60" as="alternateBounds" />
          </mxGeometry>
        </mxCell>
        <mxCell id="zNZISt4Ljxx41KLlrWgS-101" value="Espace du Processus A" style="shape=partialRectangle;html=1;whiteSpace=wrap;connectable=0;strokeColor=inherit;overflow=visible;fillColor=none;top=1;left=1;bottom=1;right=1;pointerEvents=1;fontSize=16;strokeWidth=2;verticalAlign=middle;" parent="zNZISt4Ljxx41KLlrWgS-99" vertex="1">
          <mxGeometry x="60" width="130" height="60" as="geometry">
            <mxRectangle width="130" height="60" as="alternateBounds" />
          </mxGeometry>
        </mxCell>
        <mxCell id="zNZISt4Ljxx41KLlrWgS-103" value="" style="shape=tableRow;horizontal=0;startSize=0;swimlaneHead=0;swimlaneBody=0;strokeColor=inherit;top=0;left=0;bottom=0;right=0;collapsible=0;dropTarget=0;fillColor=none;portConstraint=eastwest;fontSize=16;swimlaneFillColor=none;points=[[0,0,0,0,0],[0,0.5,0,0,0],[0,1,0,0,0],[0.5,0,0,0,0],[0.5,1,0,0,0],[1,0,0,0,0],[1,0.5,0,0,0],[1,1,0,0,0]];" parent="zNZISt4Ljxx41KLlrWgS-98" vertex="1">
          <mxGeometry y="60" width="190" height="32" as="geometry" />
        </mxCell>
        <mxCell id="zNZISt4Ljxx41KLlrWgS-104" value="0x1000" style="shape=partialRectangle;html=1;whiteSpace=wrap;connectable=0;strokeColor=default;overflow=hidden;fillColor=none;top=0;left=0;bottom=0;right=0;pointerEvents=1;fontSize=16;strokeWidth=3;align=right;verticalAlign=bottom;spacing=0;spacingRight=6;spacingBottom=-10;" parent="zNZISt4Ljxx41KLlrWgS-103" vertex="1">
          <mxGeometry width="60" height="32" as="geometry">
            <mxRectangle width="60" height="32" as="alternateBounds" />
          </mxGeometry>
        </mxCell>
        <mxCell id="zNZISt4Ljxx41KLlrWgS-105" value="page 0" style="shape=partialRectangle;html=1;whiteSpace=wrap;connectable=0;strokeColor=#666666;overflow=hidden;fillColor=#f5f5f5;top=1;left=1;bottom=1;right=1;pointerEvents=1;fontSize=16;strokeWidth=2;shadow=1;fontColor=#333333;" parent="zNZISt4Ljxx41KLlrWgS-103" vertex="1">
          <mxGeometry x="60" width="130" height="32" as="geometry">
            <mxRectangle width="130" height="32" as="alternateBounds" />
          </mxGeometry>
        </mxCell>
        <mxCell id="zNZISt4Ljxx41KLlrWgS-235" style="shape=tableRow;horizontal=0;startSize=0;swimlaneHead=0;swimlaneBody=0;strokeColor=inherit;top=0;left=0;bottom=0;right=0;collapsible=0;dropTarget=0;fillColor=none;portConstraint=eastwest;fontSize=16;swimlaneFillColor=none;points=[[0,0,0,0,0],[0,0.5,0,0,0],[0,1,0,0,0],[0.5,0,0,0,0],[0.5,1,0,0,0],[1,0,0,0,0],[1,0.5,0,0,0],[1,1,0,0,0]];" parent="zNZISt4Ljxx41KLlrWgS-98" vertex="1">
          <mxGeometry y="92" width="190" height="32" as="geometry" />
        </mxCell>
        <mxCell id="zNZISt4Ljxx41KLlrWgS-236" value="0x2000" style="shape=partialRectangle;html=1;whiteSpace=wrap;connectable=0;strokeColor=default;overflow=hidden;fillColor=none;top=0;left=0;bottom=0;right=0;pointerEvents=1;fontSize=16;strokeWidth=3;align=right;verticalAlign=bottom;spacing=0;spacingRight=6;spacingBottom=-10;" parent="zNZISt4Ljxx41KLlrWgS-235" vertex="1">
          <mxGeometry width="60" height="32" as="geometry">
            <mxRectangle width="60" height="32" as="alternateBounds" />
          </mxGeometry>
        </mxCell>
        <mxCell id="zNZISt4Ljxx41KLlrWgS-237" value="page 1" style="shape=partialRectangle;html=1;whiteSpace=wrap;connectable=0;strokeColor=#82b366;overflow=hidden;fillColor=#d5e8d4;top=1;left=1;bottom=1;right=1;pointerEvents=1;fontSize=16;strokeWidth=2;shadow=1;" parent="zNZISt4Ljxx41KLlrWgS-235" vertex="1">
          <mxGeometry x="60" width="130" height="32" as="geometry">
            <mxRectangle width="130" height="32" as="alternateBounds" />
          </mxGeometry>
        </mxCell>
        <mxCell id="zNZISt4Ljxx41KLlrWgS-232" style="shape=tableRow;horizontal=0;startSize=0;swimlaneHead=0;swimlaneBody=0;strokeColor=inherit;top=0;left=0;bottom=0;right=0;collapsible=0;dropTarget=0;fillColor=none;portConstraint=eastwest;fontSize=16;swimlaneFillColor=none;points=[[0,0,0,0,0],[0,0.5,0,0,0],[0,1,0,0,0],[0.5,0,0,0,0],[0.5,1,0,0,0],[1,0,0,0,0],[1,0.5,0,0,0],[1,1,0,0,0]];" parent="zNZISt4Ljxx41KLlrWgS-98" vertex="1">
          <mxGeometry y="124" width="190" height="32" as="geometry" />
        </mxCell>
        <mxCell id="zNZISt4Ljxx41KLlrWgS-233" value="0x3000" style="shape=partialRectangle;html=1;whiteSpace=wrap;connectable=0;strokeColor=default;overflow=hidden;fillColor=none;top=0;left=0;bottom=0;right=0;pointerEvents=1;fontSize=16;strokeWidth=3;align=right;verticalAlign=bottom;spacing=0;spacingRight=6;spacingBottom=-10;" parent="zNZISt4Ljxx41KLlrWgS-232" vertex="1">
          <mxGeometry width="60" height="32" as="geometry">
            <mxRectangle width="60" height="32" as="alternateBounds" />
          </mxGeometry>
        </mxCell>
        <mxCell id="zNZISt4Ljxx41KLlrWgS-234" value="page 2" style="shape=partialRectangle;html=1;whiteSpace=wrap;connectable=0;strokeColor=#666666;overflow=hidden;fillColor=#f5f5f5;top=1;left=1;bottom=1;right=1;pointerEvents=1;fontSize=16;strokeWidth=2;fontColor=#333333;shadow=1;" parent="zNZISt4Ljxx41KLlrWgS-232" vertex="1">
          <mxGeometry x="60" width="130" height="32" as="geometry">
            <mxRectangle width="130" height="32" as="alternateBounds" />
          </mxGeometry>
        </mxCell>
        <mxCell id="zNZISt4Ljxx41KLlrWgS-229" style="shape=tableRow;horizontal=0;startSize=0;swimlaneHead=0;swimlaneBody=0;strokeColor=inherit;top=0;left=0;bottom=0;right=0;collapsible=0;dropTarget=0;fillColor=none;portConstraint=eastwest;fontSize=16;swimlaneFillColor=none;points=[[0,0,0,0,0],[0,0.5,0,0,0],[0,1,0,0,0],[0.5,0,0,0,0],[0.5,1,0,0,0],[1,0,0,0,0],[1,0.5,0,0,0],[1,1,0,0,0]];" parent="zNZISt4Ljxx41KLlrWgS-98" vertex="1">
          <mxGeometry y="156" width="190" height="32" as="geometry" />
        </mxCell>
        <mxCell id="zNZISt4Ljxx41KLlrWgS-230" value="0x4000" style="shape=partialRectangle;html=1;whiteSpace=wrap;connectable=0;strokeColor=default;overflow=hidden;fillColor=none;top=0;left=0;bottom=0;right=0;pointerEvents=1;fontSize=16;strokeWidth=3;align=right;verticalAlign=bottom;spacing=0;spacingRight=6;spacingBottom=-10;" parent="zNZISt4Ljxx41KLlrWgS-229" vertex="1">
          <mxGeometry width="60" height="32" as="geometry">
            <mxRectangle width="60" height="32" as="alternateBounds" />
          </mxGeometry>
        </mxCell>
        <mxCell id="zNZISt4Ljxx41KLlrWgS-231" value="page&amp;nbsp; 3" style="shape=partialRectangle;html=1;whiteSpace=wrap;connectable=0;strokeColor=#b85450;overflow=hidden;fillColor=#f8cecc;top=1;left=1;bottom=1;right=1;pointerEvents=1;fontSize=16;strokeWidth=2;shadow=1;" parent="zNZISt4Ljxx41KLlrWgS-229" vertex="1">
          <mxGeometry x="60" width="130" height="32" as="geometry">
            <mxRectangle width="130" height="32" as="alternateBounds" />
          </mxGeometry>
        </mxCell>
        <mxCell id="zNZISt4Ljxx41KLlrWgS-226" style="shape=tableRow;horizontal=0;startSize=0;swimlaneHead=0;swimlaneBody=0;strokeColor=inherit;top=0;left=0;bottom=0;right=0;collapsible=0;dropTarget=0;fillColor=none;portConstraint=eastwest;fontSize=16;swimlaneFillColor=none;points=[[0,0,0,0,0],[0,0.5,0,0,0],[0,1,0,0,0],[0.5,0,0,0,0],[0.5,1,0,0,0],[1,0,0,0,0],[1,0.5,0,0,0],[1,1,0,0,0]];" parent="zNZISt4Ljxx41KLlrWgS-98" vertex="1">
          <mxGeometry y="188" width="190" height="32" as="geometry" />
        </mxCell>
        <mxCell id="zNZISt4Ljxx41KLlrWgS-227" value="0x5000" style="shape=partialRectangle;html=1;whiteSpace=wrap;connectable=0;strokeColor=default;overflow=hidden;fillColor=none;top=0;left=0;bottom=0;right=0;pointerEvents=1;fontSize=16;strokeWidth=3;align=right;verticalAlign=bottom;spacing=0;spacingRight=6;spacingBottom=-10;" parent="zNZISt4Ljxx41KLlrWgS-226" vertex="1">
          <mxGeometry width="60" height="32" as="geometry">
            <mxRectangle width="60" height="32" as="alternateBounds" />
          </mxGeometry>
        </mxCell>
        <mxCell id="zNZISt4Ljxx41KLlrWgS-228" value="page 4" style="shape=partialRectangle;html=1;whiteSpace=wrap;connectable=0;strokeColor=#666666;overflow=hidden;fillColor=#f5f5f5;top=1;left=1;bottom=1;right=1;pointerEvents=1;fontSize=16;strokeWidth=2;fontColor=#333333;shadow=1;" parent="zNZISt4Ljxx41KLlrWgS-226" vertex="1">
          <mxGeometry x="60" width="130" height="32" as="geometry">
            <mxRectangle width="130" height="32" as="alternateBounds" />
          </mxGeometry>
        </mxCell>
        <mxCell id="zNZISt4Ljxx41KLlrWgS-238" value="" style="shape=table;startSize=0;container=1;collapsible=0;childLayout=tableLayout;fontSize=16;strokeColor=none;fillColor=none;strokeWidth=2;swimlaneLine=1;perimeterSpacing=0;rowLines=0;columnLines=0;swimlaneHead=1;shadow=1;" parent="1" vertex="1">
          <mxGeometry x="300" y="110" width="40" height="220" as="geometry" />
        </mxCell>
        <mxCell id="zNZISt4Ljxx41KLlrWgS-239" value="" style="shape=tableRow;horizontal=0;startSize=0;swimlaneHead=0;swimlaneBody=0;strokeColor=inherit;top=0;left=0;bottom=0;right=0;collapsible=0;dropTarget=0;fillColor=none;points=[[0,0.5],[1,0.5]];portConstraint=eastwest;fontSize=16;" parent="zNZISt4Ljxx41KLlrWgS-238" vertex="1">
          <mxGeometry width="40" height="60" as="geometry" />
        </mxCell>
        <mxCell id="zNZISt4Ljxx41KLlrWgS-241" value="Table des Pages" style="shape=partialRectangle;connectable=0;strokeColor=inherit;overflow=visible;fillColor=none;top=1;left=1;bottom=1;right=1;pointerEvents=1;fontSize=16;strokeWidth=2;whiteSpace=wrap;html=1;verticalAlign=middle;" parent="zNZISt4Ljxx41KLlrWgS-239" vertex="1">
          <mxGeometry width="40" height="60" as="geometry">
            <mxRectangle width="40" height="60" as="alternateBounds" />
          </mxGeometry>
        </mxCell>
        <mxCell id="zNZISt4Ljxx41KLlrWgS-242" value="" style="shape=tableRow;horizontal=0;startSize=0;swimlaneHead=0;swimlaneBody=0;strokeColor=inherit;top=0;left=0;bottom=0;right=0;collapsible=0;dropTarget=0;fillColor=none;portConstraint=eastwest;fontSize=16;swimlaneFillColor=none;points=[[0,0,0,0,0],[0,0.5,0,0,0],[0,1,0,0,0],[0.5,0,0,0,0],[0.5,1,0,0,0],[1,0,0,0,0],[1,0.5,0,0,0],[1,1,0,0,0]];shadow=1;" parent="zNZISt4Ljxx41KLlrWgS-238" vertex="1">
          <mxGeometry y="60" width="40" height="32" as="geometry" />
        </mxCell>
        <mxCell id="zNZISt4Ljxx41KLlrWgS-244" value="-" style="shape=partialRectangle;html=1;whiteSpace=wrap;connectable=0;strokeColor=#666666;overflow=hidden;fillColor=#f5f5f5;top=1;left=1;bottom=1;right=1;pointerEvents=1;fontSize=16;strokeWidth=2;shadow=1;fontColor=#333333;" parent="zNZISt4Ljxx41KLlrWgS-242" vertex="1">
          <mxGeometry width="40" height="32" as="geometry">
            <mxRectangle width="40" height="32" as="alternateBounds" />
          </mxGeometry>
        </mxCell>
        <mxCell id="zNZISt4Ljxx41KLlrWgS-245" style="shape=tableRow;horizontal=0;startSize=0;swimlaneHead=0;swimlaneBody=0;strokeColor=inherit;top=0;left=0;bottom=0;right=0;collapsible=0;dropTarget=0;fillColor=none;portConstraint=eastwest;fontSize=16;swimlaneFillColor=none;points=[[0,0,0,0,0],[0,0.5,0,0,0],[0,1,0,0,0],[0.5,0,0,0,0],[0.5,1,0,0,0],[1,0,0,0,0],[1,0.5,0,0,0],[1,1,0,0,0]];" parent="zNZISt4Ljxx41KLlrWgS-238" vertex="1">
          <mxGeometry y="92" width="40" height="32" as="geometry" />
        </mxCell>
        <mxCell id="zNZISt4Ljxx41KLlrWgS-247" value="7" style="shape=partialRectangle;html=1;whiteSpace=wrap;connectable=0;strokeColor=#82b366;overflow=hidden;fillColor=#d5e8d4;top=1;left=1;bottom=1;right=1;pointerEvents=1;fontSize=16;strokeWidth=2;shadow=1;" parent="zNZISt4Ljxx41KLlrWgS-245" vertex="1">
          <mxGeometry width="40" height="32" as="geometry">
            <mxRectangle width="40" height="32" as="alternateBounds" />
          </mxGeometry>
        </mxCell>
        <mxCell id="zNZISt4Ljxx41KLlrWgS-248" style="shape=tableRow;horizontal=0;startSize=0;swimlaneHead=0;swimlaneBody=0;strokeColor=inherit;top=0;left=0;bottom=0;right=0;collapsible=0;dropTarget=0;fillColor=none;portConstraint=eastwest;fontSize=16;swimlaneFillColor=none;points=[[0,0,0,0,0],[0,0.5,0,0,0],[0,1,0,0,0],[0.5,0,0,0,0],[0.5,1,0,0,0],[1,0,0,0,0],[1,0.5,0,0,0],[1,1,0,0,0]];" parent="zNZISt4Ljxx41KLlrWgS-238" vertex="1">
          <mxGeometry y="124" width="40" height="32" as="geometry" />
        </mxCell>
        <mxCell id="zNZISt4Ljxx41KLlrWgS-250" value="-" style="shape=partialRectangle;html=1;whiteSpace=wrap;connectable=0;strokeColor=#666666;overflow=hidden;fillColor=#f5f5f5;top=1;left=1;bottom=1;right=1;pointerEvents=1;fontSize=16;strokeWidth=2;fontColor=#333333;shadow=1;" parent="zNZISt4Ljxx41KLlrWgS-248" vertex="1">
          <mxGeometry width="40" height="32" as="geometry">
            <mxRectangle width="40" height="32" as="alternateBounds" />
          </mxGeometry>
        </mxCell>
        <mxCell id="zNZISt4Ljxx41KLlrWgS-251" style="shape=tableRow;horizontal=0;startSize=0;swimlaneHead=0;swimlaneBody=0;strokeColor=inherit;top=0;left=0;bottom=0;right=0;collapsible=0;dropTarget=0;fillColor=none;portConstraint=eastwest;fontSize=16;swimlaneFillColor=none;points=[[0,0,0,0,0],[0,0.5,0,0,0],[0,1,0,0,0],[0.5,0,0,0,0],[0.5,1,0,0,0],[1,0,0,0,0],[1,0.5,0,0,0],[1,1,0,0,0]];" parent="zNZISt4Ljxx41KLlrWgS-238" vertex="1">
          <mxGeometry y="156" width="40" height="32" as="geometry" />
        </mxCell>
        <mxCell id="zNZISt4Ljxx41KLlrWgS-253" value="2" style="shape=partialRectangle;html=1;whiteSpace=wrap;connectable=0;strokeColor=#b85450;overflow=hidden;fillColor=#f8cecc;top=1;left=1;bottom=1;right=1;pointerEvents=1;fontSize=16;strokeWidth=2;shadow=1;" parent="zNZISt4Ljxx41KLlrWgS-251" vertex="1">
          <mxGeometry width="40" height="32" as="geometry">
            <mxRectangle width="40" height="32" as="alternateBounds" />
          </mxGeometry>
        </mxCell>
        <mxCell id="zNZISt4Ljxx41KLlrWgS-254" style="shape=tableRow;horizontal=0;startSize=0;swimlaneHead=0;swimlaneBody=0;strokeColor=inherit;top=0;left=0;bottom=0;right=0;collapsible=0;dropTarget=0;fillColor=none;portConstraint=eastwest;fontSize=16;swimlaneFillColor=none;points=[[0,0,0,0,0],[0,0.5,0,0,0],[0,1,0,0,0],[0.5,0,0,0,0],[0.5,1,0,0,0],[1,0,0,0,0],[1,0.5,0,0,0],[1,1,0,0,0]];" parent="zNZISt4Ljxx41KLlrWgS-238" vertex="1">
          <mxGeometry y="188" width="40" height="32" as="geometry" />
        </mxCell>
        <mxCell id="zNZISt4Ljxx41KLlrWgS-256" value="-" style="shape=partialRectangle;html=1;whiteSpace=wrap;connectable=0;strokeColor=#666666;overflow=hidden;fillColor=#f5f5f5;top=1;left=1;bottom=1;right=1;pointerEvents=1;fontSize=16;strokeWidth=2;fontColor=#333333;shadow=1;" parent="zNZISt4Ljxx41KLlrWgS-254" vertex="1">
          <mxGeometry width="40" height="32" as="geometry">
            <mxRectangle width="40" height="32" as="alternateBounds" />
          </mxGeometry>
        </mxCell>
        <mxCell id="zNZISt4Ljxx41KLlrWgS-343" value="" style="endArrow=none;dashed=1;html=1;strokeWidth=2;rounded=0;entryX=0;entryY=0;entryDx=0;entryDy=0;entryPerimeter=0;exitX=1;exitY=0;exitDx=0;exitDy=0;exitPerimeter=0;" parent="1" source="zNZISt4Ljxx41KLlrWgS-332" target="fXymR2UoT7De_2XUW-Fo-44" edge="1">
          <mxGeometry width="50" height="50" relative="1" as="geometry">
            <mxPoint x="310" y="440" as="sourcePoint" />
            <mxPoint x="440" y="394" as="targetPoint" />
          </mxGeometry>
        </mxCell>
        <mxCell id="zNZISt4Ljxx41KLlrWgS-344" value="" style="endArrow=none;dashed=1;html=1;strokeWidth=2;rounded=0;entryX=0;entryY=0;entryDx=0;entryDy=0;entryPerimeter=0;exitX=1;exitY=0;exitDx=0;exitDy=0;exitPerimeter=0;" parent="1" source="zNZISt4Ljxx41KLlrWgS-334" target="fXymR2UoT7De_2XUW-Fo-41" edge="1">
          <mxGeometry width="50" height="50" relative="1" as="geometry">
            <mxPoint x="440" y="478" as="sourcePoint" />
            <mxPoint x="440" y="426" as="targetPoint" />
          </mxGeometry>
        </mxCell>
        <mxCell id="zNZISt4Ljxx41KLlrWgS-345" value="" style="endArrow=none;dashed=1;html=1;strokeWidth=2;rounded=0;exitX=1;exitY=1;exitDx=0;exitDy=0;exitPerimeter=0;entryX=0;entryY=0;entryDx=0;entryDy=0;entryPerimeter=0;" parent="1" source="zNZISt4Ljxx41KLlrWgS-242" target="fXymR2UoT7De_2XUW-Fo-44" edge="1">
          <mxGeometry width="50" height="50" relative="1" as="geometry">
            <mxPoint x="480" y="458" as="sourcePoint" />
            <mxPoint x="440" y="394" as="targetPoint" />
          </mxGeometry>
        </mxCell>
        <mxCell id="zNZISt4Ljxx41KLlrWgS-347" value="" style="endArrow=none;dashed=1;html=1;strokeWidth=2;rounded=0;exitX=1;exitY=0;exitDx=0;exitDy=0;exitPerimeter=0;entryX=0;entryY=0;entryDx=0;entryDy=0;entryPerimeter=0;" parent="1" source="zNZISt4Ljxx41KLlrWgS-248" target="fXymR2UoT7De_2XUW-Fo-41" edge="1">
          <mxGeometry width="50" height="50" relative="1" as="geometry">
            <mxPoint x="480" y="280" as="sourcePoint" />
            <mxPoint x="440" y="426" as="targetPoint" />
          </mxGeometry>
        </mxCell>
        <mxCell id="zNZISt4Ljxx41KLlrWgS-352" value="" style="endArrow=none;dashed=1;html=1;strokeWidth=2;rounded=0;entryX=0;entryY=0;entryDx=0;entryDy=0;entryPerimeter=0;exitX=1;exitY=0;exitDx=0;exitDy=0;exitPerimeter=0;" parent="1" source="zNZISt4Ljxx41KLlrWgS-251" target="fXymR2UoT7De_2XUW-Fo-11" edge="1">
          <mxGeometry width="50" height="50" relative="1" as="geometry">
            <mxPoint x="425" y="230" as="sourcePoint" />
            <mxPoint x="440" y="234" as="targetPoint" />
          </mxGeometry>
        </mxCell>
        <mxCell id="zNZISt4Ljxx41KLlrWgS-353" value="" style="endArrow=none;dashed=1;html=1;strokeWidth=2;rounded=0;entryX=0;entryY=0;entryDx=0;entryDy=0;entryPerimeter=0;exitX=1;exitY=0;exitDx=0;exitDy=0;exitPerimeter=0;" parent="1" source="zNZISt4Ljxx41KLlrWgS-254" target="fXymR2UoT7De_2XUW-Fo-14" edge="1">
          <mxGeometry width="50" height="50" relative="1" as="geometry">
            <mxPoint x="430" y="252" as="sourcePoint" />
            <mxPoint x="440" y="266" as="targetPoint" />
          </mxGeometry>
        </mxCell>
        <mxCell id="zNZISt4Ljxx41KLlrWgS-356" value="" style="endArrow=none;dashed=1;html=1;strokeWidth=2;rounded=0;exitX=1;exitY=0;exitDx=0;exitDy=0;exitPerimeter=0;entryX=0;entryY=0;entryDx=0;entryDy=0;entryPerimeter=0;" parent="1" source="zNZISt4Ljxx41KLlrWgS-336" target="fXymR2UoT7De_2XUW-Fo-35" edge="1">
          <mxGeometry width="50" height="50" relative="1" as="geometry">
            <mxPoint x="330" y="500" as="sourcePoint" />
            <mxPoint x="440" y="490" as="targetPoint" />
          </mxGeometry>
        </mxCell>
        <mxCell id="zNZISt4Ljxx41KLlrWgS-357" value="" style="endArrow=none;dashed=1;html=1;strokeWidth=2;rounded=0;entryX=0;entryY=0;entryDx=0;entryDy=0;entryPerimeter=0;exitX=1;exitY=0;exitDx=0;exitDy=0;exitPerimeter=0;" parent="1" source="zNZISt4Ljxx41KLlrWgS-338" target="fXymR2UoT7De_2XUW-Fo-32" edge="1">
          <mxGeometry width="50" height="50" relative="1" as="geometry">
            <mxPoint x="460" y="556" as="sourcePoint" />
            <mxPoint x="440" y="522" as="targetPoint" />
          </mxGeometry>
        </mxCell>
        <mxCell id="zNZISt4Ljxx41KLlrWgS-341" value="" style="endArrow=none;dashed=1;html=1;strokeWidth=2;rounded=0;entryX=0;entryY=1;entryDx=0;entryDy=0;entryPerimeter=0;exitX=1;exitY=0;exitDx=0;exitDy=0;exitPerimeter=0;" parent="1" source="zNZISt4Ljxx41KLlrWgS-315" target="zNZISt4Ljxx41KLlrWgS-330" edge="1">
          <mxGeometry width="50" height="50" relative="1" as="geometry">
            <mxPoint x="270" y="510" as="sourcePoint" />
            <mxPoint x="320" y="460" as="targetPoint" />
          </mxGeometry>
        </mxCell>
        <mxCell id="zNZISt4Ljxx41KLlrWgS-342" value="" style="endArrow=none;dashed=1;html=1;strokeWidth=2;rounded=0;entryX=0;entryY=0;entryDx=0;entryDy=0;entryPerimeter=0;exitX=1;exitY=0;exitDx=0;exitDy=0;exitPerimeter=0;" parent="1" source="zNZISt4Ljxx41KLlrWgS-318" target="zNZISt4Ljxx41KLlrWgS-334" edge="1">
          <mxGeometry width="50" height="50" relative="1" as="geometry">
            <mxPoint x="280" y="510" as="sourcePoint" />
            <mxPoint x="410" y="510" as="targetPoint" />
          </mxGeometry>
        </mxCell>
        <mxCell id="zNZISt4Ljxx41KLlrWgS-354" value="" style="endArrow=none;dashed=1;html=1;strokeWidth=2;rounded=0;entryX=0;entryY=0;entryDx=0;entryDy=0;entryPerimeter=0;exitX=1;exitY=0;exitDx=0;exitDy=0;exitPerimeter=0;" parent="1" source="zNZISt4Ljxx41KLlrWgS-321" target="zNZISt4Ljxx41KLlrWgS-336" edge="1">
          <mxGeometry width="50" height="50" relative="1" as="geometry">
            <mxPoint x="310" y="500" as="sourcePoint" />
            <mxPoint x="440" y="500" as="targetPoint" />
          </mxGeometry>
        </mxCell>
        <mxCell id="zNZISt4Ljxx41KLlrWgS-355" value="" style="endArrow=none;dashed=1;html=1;strokeWidth=2;rounded=0;entryX=0;entryY=0;entryDx=0;entryDy=0;entryPerimeter=0;exitX=1;exitY=0;exitDx=0;exitDy=0;exitPerimeter=0;" parent="1" source="zNZISt4Ljxx41KLlrWgS-324" target="zNZISt4Ljxx41KLlrWgS-338" edge="1">
          <mxGeometry width="50" height="50" relative="1" as="geometry">
            <mxPoint x="310" y="510" as="sourcePoint" />
            <mxPoint x="440" y="510" as="targetPoint" />
          </mxGeometry>
        </mxCell>
        <mxCell id="zNZISt4Ljxx41KLlrWgS-257" value="" style="endArrow=none;dashed=1;html=1;strokeWidth=2;rounded=0;entryX=1;entryY=0;entryDx=0;entryDy=0;entryPerimeter=0;exitX=0;exitY=0;exitDx=0;exitDy=0;exitPerimeter=0;" parent="1" source="zNZISt4Ljxx41KLlrWgS-242" target="zNZISt4Ljxx41KLlrWgS-103" edge="1">
          <mxGeometry width="50" height="50" relative="1" as="geometry">
            <mxPoint x="400" y="280" as="sourcePoint" />
            <mxPoint x="450" y="230" as="targetPoint" />
          </mxGeometry>
        </mxCell>
        <mxCell id="zNZISt4Ljxx41KLlrWgS-258" value="" style="endArrow=none;dashed=1;html=1;strokeWidth=2;rounded=0;entryX=0;entryY=1;entryDx=0;entryDy=0;entryPerimeter=0;exitX=1;exitY=0;exitDx=0;exitDy=0;exitPerimeter=0;" parent="1" source="zNZISt4Ljxx41KLlrWgS-235" target="zNZISt4Ljxx41KLlrWgS-242" edge="1">
          <mxGeometry width="50" height="50" relative="1" as="geometry">
            <mxPoint x="270" y="270" as="sourcePoint" />
            <mxPoint x="320" y="220" as="targetPoint" />
          </mxGeometry>
        </mxCell>
        <mxCell id="zNZISt4Ljxx41KLlrWgS-350" value="" style="endArrow=none;dashed=1;html=1;strokeWidth=2;rounded=0;entryX=0;entryY=0;entryDx=0;entryDy=0;entryPerimeter=0;exitX=1;exitY=0;exitDx=0;exitDy=0;exitPerimeter=0;" parent="1" source="zNZISt4Ljxx41KLlrWgS-229" target="zNZISt4Ljxx41KLlrWgS-251" edge="1">
          <mxGeometry width="50" height="50" relative="1" as="geometry">
            <mxPoint x="290" y="240" as="sourcePoint" />
            <mxPoint x="420" y="240" as="targetPoint" />
          </mxGeometry>
        </mxCell>
        <mxCell id="zNZISt4Ljxx41KLlrWgS-351" value="" style="endArrow=none;dashed=1;html=1;strokeWidth=2;rounded=0;entryX=0;entryY=1;entryDx=0;entryDy=0;entryPerimeter=0;exitX=1;exitY=0;exitDx=0;exitDy=0;exitPerimeter=0;" parent="1" source="zNZISt4Ljxx41KLlrWgS-226" target="zNZISt4Ljxx41KLlrWgS-251" edge="1">
          <mxGeometry width="50" height="50" relative="1" as="geometry">
            <mxPoint x="290" y="280" as="sourcePoint" />
            <mxPoint x="420" y="280" as="targetPoint" />
          </mxGeometry>
        </mxCell>
        <mxCell id="zNZISt4Ljxx41KLlrWgS-358" value="" style="endArrow=none;dashed=1;html=1;strokeWidth=2;rounded=0;entryX=0;entryY=0;entryDx=0;entryDy=0;entryPerimeter=0;exitX=1;exitY=0;exitDx=0;exitDy=0;exitPerimeter=0;" parent="1" source="zNZISt4Ljxx41KLlrWgS-232" target="zNZISt4Ljxx41KLlrWgS-248" edge="1">
          <mxGeometry width="50" height="50" relative="1" as="geometry">
            <mxPoint x="270" y="200" as="sourcePoint" />
            <mxPoint x="340" y="200" as="targetPoint" />
          </mxGeometry>
        </mxCell>
        <mxCell id="zNZISt4Ljxx41KLlrWgS-359" value="" style="endArrow=none;dashed=1;html=1;strokeWidth=2;rounded=0;entryX=0;entryY=1;entryDx=0;entryDy=0;entryPerimeter=0;exitX=1;exitY=1;exitDx=0;exitDy=0;exitPerimeter=0;" parent="1" source="zNZISt4Ljxx41KLlrWgS-226" target="zNZISt4Ljxx41KLlrWgS-254" edge="1">
          <mxGeometry width="50" height="50" relative="1" as="geometry">
            <mxPoint x="270" y="350" as="sourcePoint" />
            <mxPoint x="340" y="350" as="targetPoint" />
          </mxGeometry>
        </mxCell>
        <mxCell id="zNZISt4Ljxx41KLlrWgS-360" value="" style="endArrow=none;dashed=1;html=1;strokeWidth=2;rounded=0;entryX=0;entryY=0;entryDx=0;entryDy=0;entryPerimeter=0;exitX=1;exitY=0;exitDx=0;exitDy=0;exitPerimeter=0;" parent="1" source="zNZISt4Ljxx41KLlrWgS-312" target="zNZISt4Ljxx41KLlrWgS-330" edge="1">
          <mxGeometry width="50" height="50" relative="1" as="geometry">
            <mxPoint x="260" y="430" as="sourcePoint" />
            <mxPoint x="330" y="430" as="targetPoint" />
          </mxGeometry>
        </mxCell>
        <mxCell id="zNZISt4Ljxx41KLlrWgS-361" value="" style="endArrow=none;dashed=1;html=1;strokeWidth=2;rounded=0;entryX=0;entryY=1;entryDx=0;entryDy=0;entryPerimeter=0;exitX=1;exitY=1;exitDx=0;exitDy=0;exitPerimeter=0;" parent="1" source="zNZISt4Ljxx41KLlrWgS-324" target="zNZISt4Ljxx41KLlrWgS-338" edge="1">
          <mxGeometry width="50" height="50" relative="1" as="geometry">
            <mxPoint x="270" y="630" as="sourcePoint" />
            <mxPoint x="340" y="630" as="targetPoint" />
          </mxGeometry>
        </mxCell>
        <mxCell id="fXymR2UoT7De_2XUW-Fo-1" value="" style="shape=table;startSize=0;container=1;collapsible=0;childLayout=tableLayout;fontSize=16;strokeColor=none;fillColor=none;strokeWidth=2;swimlaneLine=1;perimeterSpacing=0;rowLines=0;columnLines=0;swimlaneHead=1;" parent="1" vertex="1">
          <mxGeometry x="410" y="120" width="205" height="444" as="geometry" />
        </mxCell>
        <mxCell id="fXymR2UoT7De_2XUW-Fo-2" value="" style="shape=tableRow;horizontal=0;startSize=0;swimlaneHead=0;swimlaneBody=0;strokeColor=inherit;top=0;left=0;bottom=0;right=0;collapsible=0;dropTarget=0;fillColor=none;points=[[0,0.5],[1,0.5]];portConstraint=eastwest;fontSize=16;" parent="fXymR2UoT7De_2XUW-Fo-1" vertex="1">
          <mxGeometry width="205" height="60" as="geometry" />
        </mxCell>
        <mxCell id="fXymR2UoT7De_2XUW-Fo-3" value="Mémoire physique" style="shape=partialRectangle;html=1;whiteSpace=wrap;connectable=0;strokeColor=inherit;overflow=visible;fillColor=none;top=1;left=1;bottom=1;right=1;pointerEvents=1;fontSize=16;strokeWidth=2;verticalAlign=middle;" parent="fXymR2UoT7De_2XUW-Fo-2" vertex="1">
          <mxGeometry width="130" height="60" as="geometry">
            <mxRectangle width="130" height="60" as="alternateBounds" />
          </mxGeometry>
        </mxCell>
        <mxCell id="fXymR2UoT7De_2XUW-Fo-4" value="0x0000" style="shape=partialRectangle;html=1;whiteSpace=wrap;connectable=0;strokeColor=inherit;overflow=visible;fillColor=none;top=1;left=1;bottom=1;right=1;pointerEvents=1;fontSize=16;strokeWidth=2;verticalAlign=bottom;align=left;spacing=0;spacingLeft=6;spacingBottom=-10;" parent="fXymR2UoT7De_2XUW-Fo-2" vertex="1">
          <mxGeometry x="130" width="75" height="60" as="geometry">
            <mxRectangle width="75" height="60" as="alternateBounds" />
          </mxGeometry>
        </mxCell>
        <mxCell id="fXymR2UoT7De_2XUW-Fo-5" value="" style="shape=tableRow;horizontal=0;startSize=0;swimlaneHead=0;swimlaneBody=0;strokeColor=inherit;top=0;left=0;bottom=0;right=0;collapsible=0;dropTarget=0;fillColor=none;portConstraint=eastwest;fontSize=16;swimlaneFillColor=none;points=[[0,0,0,0,0],[0,0.5,0,0,0],[0,1,0,0,0],[0.5,0,0,0,0],[0.5,1,0,0,0],[1,0,0,0,0],[1,0.5,0,0,0],[1,1,0,0,0]];" parent="fXymR2UoT7De_2XUW-Fo-1" vertex="1">
          <mxGeometry y="60" width="205" height="32" as="geometry" />
        </mxCell>
        <mxCell id="fXymR2UoT7De_2XUW-Fo-6" value="cadre 0" style="shape=partialRectangle;html=1;whiteSpace=wrap;connectable=0;strokeColor=#666666;overflow=hidden;fillColor=#f5f5f5;top=1;left=1;bottom=1;right=1;pointerEvents=1;fontSize=16;strokeWidth=2;shadow=1;fontColor=#333333;" parent="fXymR2UoT7De_2XUW-Fo-5" vertex="1">
          <mxGeometry width="130" height="32" as="geometry">
            <mxRectangle width="130" height="32" as="alternateBounds" />
          </mxGeometry>
        </mxCell>
        <mxCell id="fXymR2UoT7De_2XUW-Fo-7" value="0x1000" style="shape=partialRectangle;html=1;whiteSpace=wrap;connectable=0;strokeColor=inherit;overflow=hidden;fillColor=none;top=1;left=1;bottom=1;right=1;pointerEvents=1;fontSize=16;strokeWidth=2;align=left;spacing=0;spacingLeft=6;spacingBottom=-10;verticalAlign=bottom;" parent="fXymR2UoT7De_2XUW-Fo-5" vertex="1">
          <mxGeometry x="130" width="75" height="32" as="geometry">
            <mxRectangle width="75" height="32" as="alternateBounds" />
          </mxGeometry>
        </mxCell>
        <mxCell id="fXymR2UoT7De_2XUW-Fo-8" style="shape=tableRow;horizontal=0;startSize=0;swimlaneHead=0;swimlaneBody=0;strokeColor=inherit;top=0;left=0;bottom=0;right=0;collapsible=0;dropTarget=0;fillColor=none;portConstraint=eastwest;fontSize=16;swimlaneFillColor=none;points=[[0,0,0,0,0],[0,0.5,0,0,0],[0,1,0,0,0],[0.5,0,0,0,0],[0.5,1,0,0,0],[1,0,0,0,0],[1,0.5,0,0,0],[1,1,0,0,0]];" parent="fXymR2UoT7De_2XUW-Fo-1" vertex="1">
          <mxGeometry y="92" width="205" height="32" as="geometry" />
        </mxCell>
        <mxCell id="fXymR2UoT7De_2XUW-Fo-9" value="cadre 1" style="shape=partialRectangle;html=1;whiteSpace=wrap;connectable=0;strokeColor=#666666;overflow=hidden;fillColor=#f5f5f5;top=1;left=1;bottom=1;right=1;pointerEvents=1;fontSize=16;strokeWidth=2;fontColor=#333333;shadow=1;" parent="fXymR2UoT7De_2XUW-Fo-8" vertex="1">
          <mxGeometry width="130" height="32" as="geometry">
            <mxRectangle width="130" height="32" as="alternateBounds" />
          </mxGeometry>
        </mxCell>
        <mxCell id="fXymR2UoT7De_2XUW-Fo-10" value="0x2000" style="shape=partialRectangle;html=1;whiteSpace=wrap;connectable=0;strokeColor=inherit;overflow=hidden;fillColor=none;top=1;left=1;bottom=1;right=1;pointerEvents=1;fontSize=16;strokeWidth=2;align=left;spacing=0;spacingLeft=6;spacingBottom=-10;verticalAlign=bottom;" parent="fXymR2UoT7De_2XUW-Fo-8" vertex="1">
          <mxGeometry x="130" width="75" height="32" as="geometry">
            <mxRectangle width="75" height="32" as="alternateBounds" />
          </mxGeometry>
        </mxCell>
        <mxCell id="fXymR2UoT7De_2XUW-Fo-11" style="shape=tableRow;horizontal=0;startSize=0;swimlaneHead=0;swimlaneBody=0;strokeColor=inherit;top=0;left=0;bottom=0;right=0;collapsible=0;dropTarget=0;fillColor=none;portConstraint=eastwest;fontSize=16;swimlaneFillColor=none;points=[[0,0,0,0,0],[0,0.5,0,0,0],[0,1,0,0,0],[0.5,0,0,0,0],[0.5,1,0,0,0],[1,0,0,0,0],[1,0.5,0,0,0],[1,1,0,0,0]];" parent="fXymR2UoT7De_2XUW-Fo-1" vertex="1">
          <mxGeometry y="124" width="205" height="32" as="geometry" />
        </mxCell>
        <mxCell id="fXymR2UoT7De_2XUW-Fo-12" value="cadre 2" style="shape=partialRectangle;html=1;whiteSpace=wrap;connectable=0;strokeColor=#b85450;overflow=hidden;fillColor=#f8cecc;top=1;left=1;bottom=1;right=1;pointerEvents=1;fontSize=16;strokeWidth=2;shadow=1;" parent="fXymR2UoT7De_2XUW-Fo-11" vertex="1">
          <mxGeometry width="130" height="32" as="geometry">
            <mxRectangle width="130" height="32" as="alternateBounds" />
          </mxGeometry>
        </mxCell>
        <mxCell id="fXymR2UoT7De_2XUW-Fo-13" value="0x3000" style="shape=partialRectangle;html=1;whiteSpace=wrap;connectable=0;strokeColor=inherit;overflow=hidden;fillColor=none;top=1;left=1;bottom=1;right=1;pointerEvents=1;fontSize=16;strokeWidth=2;align=left;spacing=0;spacingLeft=6;spacingBottom=-10;verticalAlign=bottom;" parent="fXymR2UoT7De_2XUW-Fo-11" vertex="1">
          <mxGeometry x="130" width="75" height="32" as="geometry">
            <mxRectangle width="75" height="32" as="alternateBounds" />
          </mxGeometry>
        </mxCell>
        <mxCell id="fXymR2UoT7De_2XUW-Fo-14" style="shape=tableRow;horizontal=0;startSize=0;swimlaneHead=0;swimlaneBody=0;strokeColor=inherit;top=0;left=0;bottom=0;right=0;collapsible=0;dropTarget=0;fillColor=none;portConstraint=eastwest;fontSize=16;swimlaneFillColor=none;points=[[0,0,0,0,0],[0,0.5,0,0,0],[0,1,0,0,0],[0.5,0,0,0,0],[0.5,1,0,0,0],[1,0,0,0,0],[1,0.5,0,0,0],[1,1,0,0,0]];" parent="fXymR2UoT7De_2XUW-Fo-1" vertex="1">
          <mxGeometry y="156" width="205" height="32" as="geometry" />
        </mxCell>
        <mxCell id="fXymR2UoT7De_2XUW-Fo-15" value="cadre 3" style="shape=partialRectangle;html=1;whiteSpace=wrap;connectable=0;strokeColor=#666666;overflow=hidden;fillColor=#f5f5f5;top=1;left=1;bottom=1;right=1;pointerEvents=1;fontSize=16;strokeWidth=2;fontColor=#333333;shadow=1;" parent="fXymR2UoT7De_2XUW-Fo-14" vertex="1">
          <mxGeometry width="130" height="32" as="geometry">
            <mxRectangle width="130" height="32" as="alternateBounds" />
          </mxGeometry>
        </mxCell>
        <mxCell id="fXymR2UoT7De_2XUW-Fo-16" value="0x4000" style="shape=partialRectangle;html=1;whiteSpace=wrap;connectable=0;strokeColor=inherit;overflow=hidden;fillColor=none;top=1;left=1;bottom=1;right=1;pointerEvents=1;fontSize=16;strokeWidth=2;align=left;spacing=0;spacingLeft=6;spacingBottom=-10;verticalAlign=bottom;" parent="fXymR2UoT7De_2XUW-Fo-14" vertex="1">
          <mxGeometry x="130" width="75" height="32" as="geometry">
            <mxRectangle width="75" height="32" as="alternateBounds" />
          </mxGeometry>
        </mxCell>
        <mxCell id="fXymR2UoT7De_2XUW-Fo-17" style="shape=tableRow;horizontal=0;startSize=0;swimlaneHead=0;swimlaneBody=0;strokeColor=inherit;top=0;left=0;bottom=0;right=0;collapsible=0;dropTarget=0;fillColor=none;portConstraint=eastwest;fontSize=16;swimlaneFillColor=none;points=[[0,0,0,0,0],[0,0.5,0,0,0],[0,1,0,0,0],[0.5,0,0,0,0],[0.5,1,0,0,0],[1,0,0,0,0],[1,0.5,0,0,0],[1,1,0,0,0]];" parent="fXymR2UoT7De_2XUW-Fo-1" vertex="1">
          <mxGeometry y="188" width="205" height="32" as="geometry" />
        </mxCell>
        <mxCell id="fXymR2UoT7De_2XUW-Fo-18" value="cadre 4" style="shape=partialRectangle;html=1;whiteSpace=wrap;connectable=0;strokeColor=#666666;overflow=hidden;fillColor=#f5f5f5;top=1;left=1;bottom=1;right=1;pointerEvents=1;fontSize=16;strokeWidth=2;shadow=1;fontColor=#333333;" parent="fXymR2UoT7De_2XUW-Fo-17" vertex="1">
          <mxGeometry width="130" height="32" as="geometry">
            <mxRectangle width="130" height="32" as="alternateBounds" />
          </mxGeometry>
        </mxCell>
        <mxCell id="fXymR2UoT7De_2XUW-Fo-19" value="0x5000" style="shape=partialRectangle;html=1;whiteSpace=wrap;connectable=0;strokeColor=inherit;overflow=hidden;fillColor=none;top=1;left=1;bottom=1;right=1;pointerEvents=1;fontSize=16;strokeWidth=2;align=left;spacing=0;spacingLeft=6;spacingBottom=-10;verticalAlign=bottom;" parent="fXymR2UoT7De_2XUW-Fo-17" vertex="1">
          <mxGeometry x="130" width="75" height="32" as="geometry">
            <mxRectangle width="75" height="32" as="alternateBounds" />
          </mxGeometry>
        </mxCell>
        <mxCell id="fXymR2UoT7De_2XUW-Fo-20" style="shape=tableRow;horizontal=0;startSize=0;swimlaneHead=0;swimlaneBody=0;strokeColor=inherit;top=0;left=0;bottom=0;right=0;collapsible=0;dropTarget=0;fillColor=none;portConstraint=eastwest;fontSize=16;swimlaneFillColor=none;points=[[0,0,0,0,0],[0,0.5,0,0,0],[0,1,0,0,0],[0.5,0,0,0,0],[0.5,1,0,0,0],[1,0,0,0,0],[1,0.5,0,0,0],[1,1,0,0,0]];" parent="fXymR2UoT7De_2XUW-Fo-1" vertex="1">
          <mxGeometry y="220" width="205" height="32" as="geometry" />
        </mxCell>
        <mxCell id="fXymR2UoT7De_2XUW-Fo-21" value="cadre 5" style="shape=partialRectangle;html=1;whiteSpace=wrap;connectable=0;strokeColor=#666666;overflow=hidden;fillColor=#f5f5f5;top=1;left=1;bottom=1;right=1;pointerEvents=1;fontSize=16;strokeWidth=2;fontColor=#333333;shadow=1;" parent="fXymR2UoT7De_2XUW-Fo-20" vertex="1">
          <mxGeometry width="130" height="32" as="geometry">
            <mxRectangle width="130" height="32" as="alternateBounds" />
          </mxGeometry>
        </mxCell>
        <mxCell id="fXymR2UoT7De_2XUW-Fo-22" value="0x6000" style="shape=partialRectangle;html=1;whiteSpace=wrap;connectable=0;strokeColor=inherit;overflow=hidden;fillColor=none;top=1;left=1;bottom=1;right=1;pointerEvents=1;fontSize=16;strokeWidth=2;align=left;spacing=0;spacingLeft=6;spacingBottom=-10;verticalAlign=bottom;" parent="fXymR2UoT7De_2XUW-Fo-20" vertex="1">
          <mxGeometry x="130" width="75" height="32" as="geometry">
            <mxRectangle width="75" height="32" as="alternateBounds" />
          </mxGeometry>
        </mxCell>
        <mxCell id="fXymR2UoT7De_2XUW-Fo-23" style="shape=tableRow;horizontal=0;startSize=0;swimlaneHead=0;swimlaneBody=0;strokeColor=inherit;top=0;left=0;bottom=0;right=0;collapsible=0;dropTarget=0;fillColor=none;portConstraint=eastwest;fontSize=16;swimlaneFillColor=none;points=[[0,0,0,0,0],[0,0.5,0,0,0],[0,1,0,0,0],[0.5,0,0,0,0],[0.5,1,0,0,0],[1,0,0,0,0],[1,0.5,0,0,0],[1,1,0,0,0]];" parent="fXymR2UoT7De_2XUW-Fo-1" vertex="1">
          <mxGeometry y="252" width="205" height="32" as="geometry" />
        </mxCell>
        <mxCell id="fXymR2UoT7De_2XUW-Fo-24" value="cadre 6" style="shape=partialRectangle;html=1;whiteSpace=wrap;connectable=0;strokeColor=#666666;overflow=hidden;fillColor=#f5f5f5;top=1;left=1;bottom=1;right=1;pointerEvents=1;fontSize=16;strokeWidth=2;shadow=1;fontColor=#333333;" parent="fXymR2UoT7De_2XUW-Fo-23" vertex="1">
          <mxGeometry width="130" height="32" as="geometry">
            <mxRectangle width="130" height="32" as="alternateBounds" />
          </mxGeometry>
        </mxCell>
        <mxCell id="fXymR2UoT7De_2XUW-Fo-25" value="0x7000" style="shape=partialRectangle;html=1;whiteSpace=wrap;connectable=0;strokeColor=inherit;overflow=hidden;fillColor=none;top=1;left=1;bottom=1;right=1;pointerEvents=1;fontSize=16;strokeWidth=2;align=left;spacing=0;spacingLeft=6;spacingBottom=-10;verticalAlign=bottom;" parent="fXymR2UoT7De_2XUW-Fo-23" vertex="1">
          <mxGeometry x="130" width="75" height="32" as="geometry">
            <mxRectangle width="75" height="32" as="alternateBounds" />
          </mxGeometry>
        </mxCell>
        <mxCell id="fXymR2UoT7De_2XUW-Fo-44" style="shape=tableRow;horizontal=0;startSize=0;swimlaneHead=0;swimlaneBody=0;strokeColor=inherit;top=0;left=0;bottom=0;right=0;collapsible=0;dropTarget=0;fillColor=none;portConstraint=eastwest;fontSize=16;swimlaneFillColor=none;points=[[0,0,0,0,0],[0,0.5,0,0,0],[0,1,0,0,0],[0.5,0,0,0,0],[0.5,1,0,0,0],[1,0,0,0,0],[1,0.5,0,0,0],[1,1,0,0,0]];" parent="fXymR2UoT7De_2XUW-Fo-1" vertex="1">
          <mxGeometry y="284" width="205" height="32" as="geometry" />
        </mxCell>
        <mxCell id="fXymR2UoT7De_2XUW-Fo-45" value="cadre 7" style="shape=partialRectangle;html=1;whiteSpace=wrap;connectable=0;strokeColor=#82b366;overflow=hidden;fillColor=#d5e8d4;top=1;left=1;bottom=1;right=1;pointerEvents=1;fontSize=16;strokeWidth=2;shadow=1;fillStyle=solid;" parent="fXymR2UoT7De_2XUW-Fo-44" vertex="1">
          <mxGeometry width="130" height="32" as="geometry">
            <mxRectangle width="130" height="32" as="alternateBounds" />
          </mxGeometry>
        </mxCell>
        <mxCell id="fXymR2UoT7De_2XUW-Fo-46" value="0x8000" style="shape=partialRectangle;html=1;whiteSpace=wrap;connectable=0;strokeColor=inherit;overflow=hidden;fillColor=none;top=1;left=1;bottom=1;right=1;pointerEvents=1;fontSize=16;strokeWidth=2;align=left;spacing=0;spacingLeft=6;spacingBottom=-10;verticalAlign=bottom;" parent="fXymR2UoT7De_2XUW-Fo-44" vertex="1">
          <mxGeometry x="130" width="75" height="32" as="geometry">
            <mxRectangle width="75" height="32" as="alternateBounds" />
          </mxGeometry>
        </mxCell>
        <mxCell id="fXymR2UoT7De_2XUW-Fo-41" style="shape=tableRow;horizontal=0;startSize=0;swimlaneHead=0;swimlaneBody=0;strokeColor=inherit;top=0;left=0;bottom=0;right=0;collapsible=0;dropTarget=0;fillColor=none;portConstraint=eastwest;fontSize=16;swimlaneFillColor=none;points=[[0,0,0,0,0],[0,0.5,0,0,0],[0,1,0,0,0],[0.5,0,0,0,0],[0.5,1,0,0,0],[1,0,0,0,0],[1,0.5,0,0,0],[1,1,0,0,0]];" parent="fXymR2UoT7De_2XUW-Fo-1" vertex="1">
          <mxGeometry y="316" width="205" height="32" as="geometry" />
        </mxCell>
        <mxCell id="fXymR2UoT7De_2XUW-Fo-42" value="cadre 8" style="shape=partialRectangle;html=1;whiteSpace=wrap;connectable=0;strokeColor=#666666;overflow=hidden;fillColor=#f5f5f5;top=1;left=1;bottom=1;right=1;pointerEvents=1;fontSize=16;strokeWidth=2;shadow=1;fontColor=#333333;" parent="fXymR2UoT7De_2XUW-Fo-41" vertex="1">
          <mxGeometry width="130" height="32" as="geometry">
            <mxRectangle width="130" height="32" as="alternateBounds" />
          </mxGeometry>
        </mxCell>
        <mxCell id="fXymR2UoT7De_2XUW-Fo-43" value="0x9000" style="shape=partialRectangle;html=1;whiteSpace=wrap;connectable=0;strokeColor=inherit;overflow=hidden;fillColor=none;top=1;left=1;bottom=1;right=1;pointerEvents=1;fontSize=16;strokeWidth=2;align=left;spacing=0;spacingLeft=6;spacingBottom=-10;verticalAlign=bottom;" parent="fXymR2UoT7De_2XUW-Fo-41" vertex="1">
          <mxGeometry x="130" width="75" height="32" as="geometry">
            <mxRectangle width="75" height="32" as="alternateBounds" />
          </mxGeometry>
        </mxCell>
        <mxCell id="fXymR2UoT7De_2XUW-Fo-38" style="shape=tableRow;horizontal=0;startSize=0;swimlaneHead=0;swimlaneBody=0;strokeColor=inherit;top=0;left=0;bottom=0;right=0;collapsible=0;dropTarget=0;fillColor=none;portConstraint=eastwest;fontSize=16;swimlaneFillColor=none;points=[[0,0,0,0,0],[0,0.5,0,0,0],[0,1,0,0,0],[0.5,0,0,0,0],[0.5,1,0,0,0],[1,0,0,0,0],[1,0.5,0,0,0],[1,1,0,0,0]];" parent="fXymR2UoT7De_2XUW-Fo-1" vertex="1">
          <mxGeometry y="348" width="205" height="32" as="geometry" />
        </mxCell>
        <mxCell id="fXymR2UoT7De_2XUW-Fo-39" value="cadre 9" style="shape=partialRectangle;html=1;whiteSpace=wrap;connectable=0;strokeColor=#666666;overflow=hidden;fillColor=#f5f5f5;top=1;left=1;bottom=1;right=1;pointerEvents=1;fontSize=16;strokeWidth=2;shadow=1;fontColor=#333333;" parent="fXymR2UoT7De_2XUW-Fo-38" vertex="1">
          <mxGeometry width="130" height="32" as="geometry">
            <mxRectangle width="130" height="32" as="alternateBounds" />
          </mxGeometry>
        </mxCell>
        <mxCell id="fXymR2UoT7De_2XUW-Fo-40" value="0x10000" style="shape=partialRectangle;html=1;whiteSpace=wrap;connectable=0;strokeColor=inherit;overflow=hidden;fillColor=none;top=1;left=1;bottom=1;right=1;pointerEvents=1;fontSize=16;strokeWidth=2;align=left;spacing=0;spacingLeft=6;spacingBottom=-10;verticalAlign=bottom;" parent="fXymR2UoT7De_2XUW-Fo-38" vertex="1">
          <mxGeometry x="130" width="75" height="32" as="geometry">
            <mxRectangle width="75" height="32" as="alternateBounds" />
          </mxGeometry>
        </mxCell>
        <mxCell id="fXymR2UoT7De_2XUW-Fo-35" style="shape=tableRow;horizontal=0;startSize=0;swimlaneHead=0;swimlaneBody=0;strokeColor=inherit;top=0;left=0;bottom=0;right=0;collapsible=0;dropTarget=0;fillColor=none;portConstraint=eastwest;fontSize=16;swimlaneFillColor=none;points=[[0,0,0,0,0],[0,0.5,0,0,0],[0,1,0,0,0],[0.5,0,0,0,0],[0.5,1,0,0,0],[1,0,0,0,0],[1,0.5,0,0,0],[1,1,0,0,0]];" parent="fXymR2UoT7De_2XUW-Fo-1" vertex="1">
          <mxGeometry y="380" width="205" height="32" as="geometry" />
        </mxCell>
        <mxCell id="fXymR2UoT7De_2XUW-Fo-36" value="cadre 10" style="shape=partialRectangle;html=1;whiteSpace=wrap;connectable=0;strokeColor=#6c8ebf;overflow=hidden;fillColor=#dae8fc;top=1;left=1;bottom=1;right=1;pointerEvents=1;fontSize=16;strokeWidth=2;shadow=1;" parent="fXymR2UoT7De_2XUW-Fo-35" vertex="1">
          <mxGeometry width="130" height="32" as="geometry">
            <mxRectangle width="130" height="32" as="alternateBounds" />
          </mxGeometry>
        </mxCell>
        <mxCell id="fXymR2UoT7De_2XUW-Fo-37" value="0x11000" style="shape=partialRectangle;html=1;whiteSpace=wrap;connectable=0;strokeColor=inherit;overflow=hidden;fillColor=none;top=1;left=1;bottom=1;right=1;pointerEvents=1;fontSize=16;strokeWidth=2;align=left;spacing=0;spacingLeft=6;spacingBottom=-10;verticalAlign=bottom;" parent="fXymR2UoT7De_2XUW-Fo-35" vertex="1">
          <mxGeometry x="130" width="75" height="32" as="geometry">
            <mxRectangle width="75" height="32" as="alternateBounds" />
          </mxGeometry>
        </mxCell>
        <mxCell id="fXymR2UoT7De_2XUW-Fo-32" style="shape=tableRow;horizontal=0;startSize=0;swimlaneHead=0;swimlaneBody=0;strokeColor=inherit;top=0;left=0;bottom=0;right=0;collapsible=0;dropTarget=0;fillColor=none;portConstraint=eastwest;fontSize=16;swimlaneFillColor=none;points=[[0,0,0,0,0],[0,0.5,0,0,0],[0,1,0,0,0],[0.5,0,0,0,0],[0.5,1,0,0,0],[1,0,0,0,0],[1,0.5,0,0,0],[1,1,0,0,0]];" parent="fXymR2UoT7De_2XUW-Fo-1" vertex="1">
          <mxGeometry y="412" width="205" height="32" as="geometry" />
        </mxCell>
        <mxCell id="fXymR2UoT7De_2XUW-Fo-33" value="cadre 11" style="shape=partialRectangle;html=1;whiteSpace=wrap;connectable=0;strokeColor=#666666;overflow=hidden;fillColor=#f5f5f5;top=1;left=1;bottom=1;right=1;pointerEvents=1;fontSize=16;strokeWidth=2;shadow=1;fontColor=#333333;" parent="fXymR2UoT7De_2XUW-Fo-32" vertex="1">
          <mxGeometry width="130" height="32" as="geometry">
            <mxRectangle width="130" height="32" as="alternateBounds" />
          </mxGeometry>
        </mxCell>
        <mxCell id="fXymR2UoT7De_2XUW-Fo-34" value="0x12000" style="shape=partialRectangle;html=1;whiteSpace=wrap;connectable=0;strokeColor=inherit;overflow=hidden;fillColor=none;top=1;left=1;bottom=1;right=1;pointerEvents=1;fontSize=16;strokeWidth=2;align=left;spacing=0;spacingLeft=6;spacingBottom=-10;verticalAlign=bottom;" parent="fXymR2UoT7De_2XUW-Fo-32" vertex="1">
          <mxGeometry x="130" width="75" height="32" as="geometry">
            <mxRectangle width="75" height="32" as="alternateBounds" />
          </mxGeometry>
        </mxCell>
      </root>
    </mxGraphModel>
  </diagram>
</mxfile>
